<svg id="Layer_1" data-name="Layer 1" xmlns="http://www.w3.org/2000/svg" viewBox="0 0 600 600"><title>highlight-rpn</title><rect x="10" y="160" width="580" height="280" rx="40" ry="40" fill="none" stroke="#111" stroke-miterlimit="10" stroke-width="17"/><g style="isolation:isolate"><path d="M142.13,311.9v61.62H122.89V231.43h48.63q23.34,0,35.64,10.35t12.3,30.08a32.2,32.2,0,0,1-5.71,19Q208,299,197.11,303.8q11.72,3.81,16.85,12.35t5.13,21.14v13.38a44.54,44.54,0,0,0,1.46,11.91,17.86,17.86,0,0,0,5.08,8.59v2.34H205.8q-3.81-3.32-4.88-9.77a80.54,80.54,0,0,1-1.07-13.28v-13q0-11.52-6.74-18.55t-18.07-7Zm0-15.14h27.44q16.31,0,23.49-6.2t7.18-18.9q0-12-7-18.6t-21.73-6.59H142.13Z" fill="#111"/><path d="M269.37,316.49v57H250.13V231.34h54.39q22.75,0,35.4,11.72t12.65,30.86q0,19.34-12.65,31t-35.4,11.62Zm0-15h35.16q14.45,0,21.58-7.76t7.13-19.58q0-11.82-7.18-19.73t-21.53-7.91H269.37Z" fill="#111"/><path d="M484.8,373.52H465.56L397.11,264.93l-.59.2v108.4H377.28V231.34h19.24L465,339.83l.59-.2V231.34H484.8Z" fill="#111"/></g></svg>