<svg id="Layer_1" data-name="Layer 1" xmlns="http://www.w3.org/2000/svg" viewBox="0 0 1024 1024"><title>highlight-themes</title><path d="M137.66,641.71C61.75,641.71,0,580,0,504S61.75,366.38,137.66,366.38,275.32,428.14,275.32,504,213.57,641.71,137.66,641.71Zm0-215.13A77.47,77.47,0,1,0,215.13,504,77.56,77.56,0,0,0,137.66,426.58Z" fill="#07bae9"/><path d="M501.4,833.68c-75.91,0-137.66-61.75-137.66-137.66S425.49,558.36,501.4,558.36,639.06,620.11,639.06,696,577.31,833.68,501.4,833.68Zm0-215.13A77.47,77.47,0,1,0,578.87,696,77.56,77.56,0,0,0,501.4,618.55Z" fill="#2f469d"/><path d="M886.34,448.26c-75.91,0-137.66-61.75-137.66-137.66s61.75-137.66,137.66-137.66S1024,234.69,1024,310.6,962.25,448.26,886.34,448.26Zm0-215.13a77.47,77.47,0,1,0,77.47,77.47A77.56,77.56,0,0,0,886.34,233.13Z" fill="#0d173f"/><rect x="107.08" y="18.28" width="60.19" height="378.2" fill="#07bae9"/><rect x="107.08" y="588.45" width="60.19" height="417.77" fill="#07bae9"/><rect x="471.31" y="792.01" width="60.19" height="221.93" fill="#2f469d"/><rect x="471.31" y="26.01" width="60.19" height="574.02" fill="#2f469d"/><rect x="856.24" y="10.07" width="60.19" height="204.54" fill="#0d173f"/><rect x="856.24" y="406.58" width="60.19" height="591.43" fill="#0d173f"/></svg>