<svg id="Layer_1" data-name="Layer 1" xmlns="http://www.w3.org/2000/svg" viewBox="0 0 1024 1024"><title>highlight-3-in-1</title><path d="M514.4,570.18a28.57,28.57,0,0,1-13.56-3.4L20.37,310.54a28.81,28.81,0,0,1,0-50.86L500.84,3.41a28.64,28.64,0,0,1,27.12,0l480.47,256.26a28.81,28.81,0,0,1,0,50.86L528,566.77A28.57,28.57,0,0,1,514.4,570.18ZM95.18,285.11,514.4,508.66,933.62,285.11,514.4,61.53Z" fill="#0655a5"/><path d="M1004.45,491.89,898.66,435.46,838.47,468.7l91.15,48.61L510.41,740.91,91.19,517.32,185.58,467l-61.09-32.76L16.36,491.89a28.82,28.82,0,0,0,0,50.86L496.83,799A28.77,28.77,0,0,0,524,799l480.47-256.26a28.82,28.82,0,0,0,0-50.86Z" fill="#7fb742"/><path d="M1003.65,713.47,897.86,657.05l-60.19,33.24,91.15,48.61L509.6,962.5,90.38,738.91l94.39-50.34-61.09-32.76L15.55,713.47a28.82,28.82,0,0,0,0,50.86L496,1020.6a28.77,28.77,0,0,0,27.14,0l480.47-256.26a28.82,28.82,0,0,0,0-50.86Z" fill="#572d8e"/></svg>